# xmcd CD database file
#
# Track frame offsets:
#	150
#	15995
#	25625
#	35307
#	44848
#	53166
#	56843
#	63543
#	68600
#	76140
#	79444
#	87800
#	96946
#	100557
#
# Disc length: 1405 seconds
#
# Revision: 0
# Processed by: cddbd v1.5PL3 Copyright (c) Steve Scherf et al.
# Submitted via: CDex 1.51
#
DISCID=a8057b0e
DTITLE=Mark Knopfler - The Ragpicker's Dream Interview Disk
DYEAR=2002
DGENRE=Country
TTITLE0=Information - Talks About The Album
TTITLE1=Why Aye Man
TTITLE2=Devil Baby
TTITLE3=Hill Farmer's Blues
TTITLE4=A Place Where We Used To Live
TTITLE5=Quality Shoe
TTITLE6=Fare Thee Well Northumberland
TTITLE7=Marbletown
TTITLE8=You Don't Know You're Born
TTITLE9=Coyote
TTITLE10=The Ragpicker's Dream
TTITLE11=Daddy's Gone To Knoxville
TTITLE12=Old Pigweed
TTITLE13=Outro - Touring
EXTD=YEAR: 2002
EXTT0=
EXTT1=
EXTT2=
EXTT3=
EXTT4=
EXTT5=
EXTT6=
EXTT7=
EXTT8=
EXTT9=
EXTT10=
EXTT11=
EXTT12=
EXTT13=
PLAYORDER=
